<svg xmlns="http://www.w3.org/2000/svg" viewBox="0 0 120 120">
  <defs>
    <clipPath id="c"><circle cx="60" cy="60" r="60"/></clipPath>
    <linearGradient id="bg" x1="0" y1="0" x2="1" y2="1">
      <stop offset="0" stop-color="#ff8a4d"/>
      <stop offset="1" stop-color="#ff6a21"/>
    </linearGradient>
  </defs>
  <g clip-path="url(#c)">
    <rect width="120" height="120" fill="url(#bg)"/>
    <!-- cabelo (fundo) -->
    <path d="M60 18c-20 0-32 14-32 32v18c0 6 4 10 8 10V52c0-14 10-24 24-24s24 10 24 24v26c4 0 8-4 8-10V50c0-18-12-32-32-32z" fill="#2b1b12"/>
    <!-- pescoço + camisa -->
    <rect x="52" y="86" width="16" height="14" rx="6" fill="#e8a87c"/>
    <path d="M24 120c2-18 18-26 36-26s34 8 36 26z" fill="#fff7ed"/>
    <!-- rosto -->
    <circle cx="60" cy="60" r="26" fill="#f2b48c"/>
    <!-- franja -->
    <path d="M34 56c0-16 12-28 26-28s26 12 26 28c-4-10-10-14-14-14 2 4 2 8 2 8-8-6-24-6-34 2 0 0-2-4 0-8-3 2-5 6-6 12z" fill="#2b1b12"/>
    <!-- coque -->
    <circle cx="60" cy="20" r="10" fill="#2b1b12"/>
    <!-- olhos e sobrancelhas -->
    <circle cx="50" cy="60" r="2.6" fill="#2b1b12"/>
    <circle cx="70" cy="60" r="2.6" fill="#2b1b12"/>
    <path d="M45 53c3-2 7-2 10 0M65 53c3-2 7-2 10 0" stroke="#2b1b12" stroke-width="2" stroke-linecap="round" fill="none"/>
    <!-- sorriso -->
    <path d="M52 71c4 4 12 4 16 0" stroke="#b3502a" stroke-width="2.5" stroke-linecap="round" fill="none"/>
    <!-- headset -->
    <path d="M32 58v-6c0-16 12-28 28-28s28 12 28 28v6" stroke="#111827" stroke-width="4" fill="none" stroke-linecap="round"/>
    <rect x="26" y="54" width="8" height="14" rx="4" fill="#111827"/>
    <rect x="86" y="54" width="8" height="14" rx="4" fill="#111827"/>
    <path d="M90 68c0 8-8 14-18 15" stroke="#111827" stroke-width="3.5" fill="none" stroke-linecap="round"/>
    <circle cx="70" cy="83" r="3.5" fill="#111827"/>
  </g>
</svg>
